# xmcd
#
# Track frame offsets: 
#        150
#        17166
#        30235
#        42661
#        54363
#        69556
#        87600
#        102555
#
# Disc length: 1592 seconds
#
# Revision: 0
# Processed by: cddbd v1.5.2PL0 Copyright (c) Steve Scherf et al.
# Submitted via: ExactAudioCopyFreeDBPlugin 1.0
#
DISCID=68063608
DTITLE=Tim Bastmeyer - Tim Bastmeyer Project
DYEAR=2016
DGENRE=blues
TTITLE0=Dreams Of The East
TTITLE1=Grinder
TTITLE2=I Said Pardon
TTITLE3=Low and Slow
TTITLE4=Rabbit
TTITLE5=Tech Check
TTITLE6=Time
TTITLE7=Title Fight
EXTD=
EXTT0=
EXTT1=
EXTT2=
EXTT3=
EXTT4=
EXTT5=
EXTT6=
EXTT7=
PLAYORDER=
